<svg id="BklQmjToM" xmlns="http://www.w3.org/2000/svg" viewBox="0 0 535.21 549.1"><title>endlogo</title><g id="SkeeX7s6sf_SkiV7oTof" data-name="SkeeX7s6sf SkiV7oTof"><polygon id="SkeeX7s6sf" points="32.6 360.1 0 360.1 147.5 0.1 180 0.1 32.6 360.1"/></g><g id="ryZxX7ipjf_BkQCQipoG" data-name="ryZxX7ipjf BkQCQipoG"><polygon id="ryZxX7ipjf" points="245.9 549.1 213.4 549.1 360.9 189.1 393.4 189.1 245.9 549.1"/></g><g id="ByfgQQiajG_SkHSEoasz" data-name="ByfgQQiajG SkHSEoasz"><polygon id="ByfgQQiajG" points="215.6 170 248.2 170 180.2 0 147.7 0 215.6 170"/></g><g id="S1Xgmmj6oM_rkwkBo6jf" data-name="S1Xgmmj6oM rkwkBo6jf"><polygon id="S1Xgmmj6oM" points="290.6 359.1 323.2 359.1 255.2 189.1 222.7 189.1 290.6 359.1"/></g><g id="Hy4gQms6if_SyKwro6sz" data-name="Hy4gQms6if SyKwro6sz"><path id="Hy4gQms6if" d="M508.27,329.6v68h34.17v17H491.18v-85Z" transform="translate(-232.96 -244.61)"/></g><g id="ByHemQi6sz_SJaDIsTsG" data-name="ByHemQi6sz SJaDIsTsG"><path id="ByHemQi6sz" d="M604.32,329.39v17H570.15v17.14h25.63v17H570.15v17.14h34.17v17H553.07V329.39Z" transform="translate(-232.96 -244.61)"/></g><g id="H1Ix77jpoM_SkX1vsTjf" data-name="H1Ix77jpoM SkX1vsTjf"><path id="H1Ix77jpoM" d="M634.38,329.6l14.5,25.26,14.55-25.26H683l-24.36,42.45L683,414.61H663.43l-14.55-25.37-14.5,25.37-19.62,0L639,372.06,614.76,329.6Z" transform="translate(-232.96 -244.61)"/></g><g id="SJvxXXoTof_r1KYFopjM" data-name="SJvxXXoTof r1KYFopjM"><path id="SJvxXXoTof" d="M650.72,433.37l38.45,85.94H670.84l-5.7-12.8H636.3l-5.69,12.8H612.32Zm7.73,58.2-7.68-17.82L643,491.58Z" transform="translate(-232.96 -244.61)"/></g><g id="B1OgmQj6if_HypAKjasz" data-name="B1OgmQj6if HypAKjasz"><path id="B1OgmQj6if" d="M751.17,481.65V434.89h17V521l-50.78-48.38v46.76h-17v-86.1Z" transform="translate(-232.96 -244.61)"/></g></svg>